<svg xmlns="http://www.w3.org/2000/svg" viewBox="0 0 431 100" width="431" height="100">
  <defs>
    <style>
      @import url('https://fonts.googleapis.com/css2?family=Montserrat:wght@700;800&amp;display=swap');
      .logo-text { font-family: 'Montserrat', 'Arial Black', 'Helvetica Neue', sans-serif; font-weight: 800; }
      .logo-sub { font-family: 'Montserrat', 'Arial', 'Helvetica Neue', sans-serif; font-weight: 700; }
    </style>
  </defs>
  
  <!-- Leaf icon -->
  <g transform="translate(310, 8)">
    <path d="M0,30 C2,22 8,12 18,6 C28,0 38,-2 45,2 C52,6 50,14 44,22 C38,30 28,36 18,40 C8,44 0,42 0,30Z" 
          fill="#71BF43" opacity="0.85"/>
    <path d="M18,40 C12,34 8,26 8,18 C8,10 14,4 22,2 C30,0 36,4 38,10 C40,16 36,24 28,30 C22,34 18,38 18,40Z" 
          fill="#71BF43"/>
    <path d="M22,2 C18,8 14,16 14,24 C14,30 18,36 24,38" 
          fill="none" stroke="#5AA330" stroke-width="1.5" stroke-linecap="round"/>
  </g>
  
  <!-- Main text "imperveg" -->
  <text x="0" y="55" font-size="52" font-family="'Montserrat','Arial Black',sans-serif" font-weight="800" fill="#000000">
    imperveg
  </text>
  
  <!-- Subtitle "IMPERVEG" -->
  <text x="0" y="80" font-size="14" font-family="'Montserrat','Arial',sans-serif" font-weight="700" fill="#000000" letter-spacing="4">
    IMPERVEG
  </text>
</svg>