<svg xmlns="http://www.w3.org/2000/svg" viewBox="0 0 606 121" width="606" height="121">
  <defs>
    <style>
      @import url('https://fonts.googleapis.com/css2?family=Montserrat:wght@700;800&amp;display=swap');
      .logo-text { font-family: 'Montserrat', 'Arial Black', 'Helvetica Neue', sans-serif; font-weight: 800; }
    </style>
  </defs>
  
  <!-- Leaf icon (based on original PNG analysis - black/dark gray) -->
  <g transform="translate(20, 32)">
    <path d="M0,30 C2,22 8,12 18,6 C28,0 38,-2 45,2 C52,6 50,14 44,22 C38,30 28,36 18,40 C8,44 0,42 0,30Z" 
          fill="#000000"/>
    <path d="M18,40 C12,34 8,26 8,18 C8,10 14,4 22,2 C30,0 36,4 38,10 C40,16 36,24 28,30 C22,34 18,38 18,40Z" 
          fill="#000000"/>
    <path d="M22,2 C18,8 14,16 14,24 C14,30 18,36 24,38" 
          fill="none" stroke="#000000" stroke-width="1.5" stroke-linecap="round"/>
  </g>
  
  <!-- Main text "TECNOVEG" -->
  <text x="100" y="78" font-size="56" font-family="'Montserrat','Arial Black',sans-serif" font-weight="800" fill="#000000" letter-spacing="2">
    TECNOVEG
  </text>
</svg>